<svg xmlns="http://www.w3.org/2000/svg" xml:space="preserve" width="800" height="800" version="1.0" viewBox="0 0 64 64"><g fill="#231F20"><path d="M6 36V6h2a3 3 0 0 0 0-6H4a4 4 0 0 0-4 4v34.721A7.98 7.98 0 0 1 6 36M60 0h-4a3 3 0 0 0 0 6h2v30a7.98 7.98 0 0 1 6 2.721V4a4 4 0 0 0-4-4M58 38H40c-.596 0-1.168.096-1.711.258a9.922 9.922 0 0 0-12.598-.006A6 6 0 0 0 24 38H6a6 6 0 0 0-6 6v8c0 6.627 5.373 12 12 12h6c6.627 0 12-5.373 12-12v-8c0-.462-.058-.91-.156-1.342C30.466 42.25 31.199 42 32 42s1.534.25 2.156.658c-.098.432-.156.88-.156 1.342v8c0 6.627 5.373 12 12 12h6c6.627 0 12-5.373 12-12v-8a6 6 0 0 0-6-6M18 60a1 1 0 1 1 0-2 6 6 0 0 0 6-6 1 1 0 1 1 2 0 8 8 0 0 1-8 8m34 0a1 1 0 1 1 0-2 6 6 0 0 0 6-6 1 1 0 1 1 2 0 8 8 0 0 1-8 8"/></g></svg>